<!--?xml version="1.0" encoding="utf-8"?-->
<!-- Svg Vector Icons : http://www.onlinewebfonts.com/icon -->

<svg version="1.1" xmlns="http://www.w3.org/2000/svg" xmlns:xlink="http://www.w3.org/1999/xlink" x="0px" y="0px" viewBox="0 0 256 256" enable-background="new 0 0 256 256" xml:space="preserve">
<metadata> Svg Vector Icons : http://www.onlinewebfonts.com/icon </metadata>
<g><g><path fill="#e5e5e5" data-title="Layer 0" xs="0" d="M149.8,15.3c0.7,0,1.4,0.1,2.2,0.1c5.3,0.1,10.6,0.2,15.9,0.3c5.3,0.1,10.6,0.1,15.9,0.3c2.9,0.1,5.7,0.2,8.6,0.4c4.1,0.3,7.5,2.2,10.1,5.4c2.1,2.7,4.1,5.7,6,8.6c7.5,11.3,14.9,22.6,22.3,33.9c2,3,3.9,5.9,5.9,8.9c0.1,0.2,0.2,0.4,0.4,0.7c-0.5,0-1,0.1-1.4,0.1c-6.4,0-12.8,0-19.2,0c-11.4,0-22.8,0-34.1,0c-2,0-4.1,0-6.1-0.3c-3.5-0.5-6.5-2.2-9.3-4.2c-3.6-2.5-6.4-5.8-8.8-9.5c-4.6-7.2-9.1-14.4-13.7-21.6c-4.8-7.7-9.7-15.3-14.5-23C136.5,15.3,143.1,15.3,149.8,15.3z"/><path fill="#e5e5e5" data-title="Layer 1" xs="1" d="M148.6,92.7c-0.6,0.9-1.3,1.8-1.9,2.7c-8,11.1-16,22.1-24.1,33.2c-3.7,5-7.2,10.2-11.1,15c-8.2,10.2-15.5,20.9-23.3,31.3c-1.7,2.2-3.3,4.5-5.1,6.6c-2.6,3.2-6.2,4.8-10.3,5.1c-3.4,0.2-6.8,0.2-10.3,0.1c-3.3,0-6.6-0.1-9.9-0.1c-6.5-0.1-13-0.2-19.6-0.3c-5.2-0.1-10.4-0.1-15.7-0.2c-2.4,0-4.8,0-7.2,0c0-0.1-0.1-0.1-0.1-0.2c0.2-0.4,0.4-0.8,0.7-1.1c7.8-11,15.5-22,23.3-33.1c3.5-4.9,7-9.8,10.4-14.7c1.2-1.6,2.5-3,4.1-4.2c0.4-0.3,0.8-0.7,1.1-1.1c7.3-10.3,14.5-20.5,21.8-30.8c2.4-3.3,5.6-5.5,9.3-7.2c4.2-1.9,8.6-2.8,13.1-2.7c5.9,0.1,11.9,0.3,17.8,0.5c4.7,0.1,9.4,0.3,14,0.4c6.2,0.2,12.5,0.4,18.7,0.6c1.4,0,2.8,0,4.1,0C148.5,92.5,148.5,92.6,148.6,92.7z"/><path fill="#e5e5e5" data-title="Layer 2" xs="2" d="M127.5,149.9c0.3-0.6,0.5-0.9,0.8-1.3c10.9-15.5,22-30.9,32.8-46.5c4.6-6.5,10.9-9.6,18.4-10.9c4-0.7,8-0.4,12-0.3c6.1,0.2,12.1,0.4,18.2,0.6c6.4,0.2,12.8,0.4,19.2,0.6c3.3,0.1,6.7,0.2,10,0.4c0.1,0,0.2,0,0.3,0c-0.2,0.4-0.5,0.7-0.7,1c-8,11.1-16,22.1-24,33.1c-4.1,5.7-8.4,11.4-12.5,17.1c-2.7,3.7-6.2,6-10.8,6.6c-1,0.1-2,0.3-3,0.3c-7.2,0-14.4-0.1-21.6-0.2c-5.1-0.1-10.2-0.2-15.3-0.2c-6.8-0.1-13.6-0.2-20.4-0.3C129.9,149.9,128.8,149.9,127.5,149.9z"/><path fill="#e5e5e5" data-title="Layer 3" xs="3" d="M171.9,240.5c-2.1,0-4.1,0-6.2,0c0-6.1,0-12.2,0-18.3c-0.1,0-0.1,0-0.2-0.1c-0.1,0.2-0.3,0.4-0.3,0.6c-0.5,1.8-1,3.5-1.4,5.3c-1,3.8-1.9,7.6-2.9,11.5c-0.3,1-0.5,1.2-1.6,1.2c-1.2,0-2.3-0.1-3.5,0c-0.7,0-1-0.2-1.2-0.9c-1.4-5.6-2.8-11.2-4.3-16.9c0-0.2-0.2-0.4-0.3-0.6c-0.1,0-0.1,0-0.2,0.1c0,6,0,12.1,0,18.2c-2.1,0-4.2,0-6.3,0c0-8.5,0-17,0-25.5c3.4,0,6.7,0,10.2,0c0.3,1.3,0.7,2.6,1,3.9c0.9,3.5,1.8,6.9,2.7,10.4c0,0.2,0.2,0.4,0.4,0.6c0.1-0.2,0.3-0.4,0.3-0.6c1.2-4.6,2.4-9.2,3.5-13.8c0-0.2,0.1-0.4,0.2-0.6c3.4,0,6.7,0,10.2,0C171.9,223.5,171.9,231.9,171.9,240.5z"/><path fill="#e5e5e5" data-title="Layer 4" xs="4" d="M215.5,240.6c-2.3,0-4.5,0-6.8,0c-0.3,0-0.7-0.5-1-0.8c-2-2.8-3.9-5.6-5.8-8.4c-0.7-1.1-1.5-2.2-2.3-3.3c-0.2-0.4-0.6-0.6-0.9-0.9c0,0-0.1,0.1-0.1,0.1c0,4.4,0,8.9,0,13.3c-2.5,0-4.8,0-7.3,0c0-8.5,0-17,0-25.5c2.1,0,4.3-0.1,6.4,0c0.5,0,1.1,0.6,1.4,1.1c2.6,3.8,5.2,7.6,7.8,11.4c0.3,0.4,0.7,0.8,1,1.2c0,0,0.1,0,0.2-0.1c0-4.5,0-8.9,0-13.5c2.5,0,4.9,0,7.4,0C215.5,223.5,215.5,232.1,215.5,240.6z"/><path fill="#e5e5e5" data-title="Layer 5" xs="5" d="M89.6,240.6c-0.5,0-0.8,0-1.2,0c-2.3,0-4.5-0.1-6.8,0c-0.8,0-1.2-0.3-1.5-0.9c-1-1.9-2-3.8-3.1-5.7c-0.5-0.8-0.9-1.7-1.4-2.5c-0.8-1.2-1.9-1.6-3.4-1.3c0,3.4,0,6.8,0,10.3c-2.6,0-5.2,0-7.8,0c0-8.5,0-17,0-25.5c0.3,0,0.6,0,1,0c5.1,0.1,10.1,0.1,15.2,0.3c4.9,0.1,6.7,3.2,6.7,7.2c0,2.8-1.4,4.8-4,6c-0.5,0.2-1,0.4-1.7,0.7c0.3,0.3,0.6,0.5,0.9,0.7c0.9,0.7,1.7,1.5,2.3,2.5c1.5,2.6,3,5.3,4.6,7.9C89.5,240.3,89.5,240.4,89.6,240.6z M72.3,220.1c0,1.5,0,2.9,0,4.3c0,0.5,0.4,0.9,0.9,0.8c1.4-0.1,2.9-0.1,4.3-0.3c1.3-0.2,2.1-1.2,2-2.4c0-1.3-0.9-2.3-2.3-2.4C75.6,220.1,74,220.1,72.3,220.1z"/><path fill="#e5e5e5" data-title="Layer 6" xs="6" d="M59.3,214.9c0,1.8,0,3.6,0,5.3c-4.4,0-8.7,0-13.1,0c0,1.2-0.1,2.4,0,3.6c0,0.3,0.7,0.5,1.1,0.7c0.4,0.1,0.9,0,1.3,0c3,0,5.9,0,8.9,0c0.2,0,0.5,0,0.7,0c0,1.7,0,3.3,0,5.1c-0.2,0-0.5,0-0.7,0c-3.5,0-6.9,0-10.4,0c-1.1,0-1.2,0.1-1.2,1.2c0,1.3,0,2.6,0,3.9c0.3,0,0.6,0,0.8,0c3.9,0,7.7,0,11.6,0c1.1,0,1.3,0.2,1.3,1.3c0,1.5,0,3,0,4.5c-7.2,0-14.3,0-21.6,0c0-0.5,0-0.9,0-1.3c0-6.7,0-13.4,0-20c0-1,0-1.9,0-2.9c0-1.1,0.3-1.4,1.5-1.4c5.9,0,11.8,0,17.7,0C58,214.9,58.6,214.9,59.3,214.9z"/><path fill="#e5e5e5" data-title="Layer 7" xs="7" d="M140.5,240.6c-1,0-1.9,0-2.8,0c-1.6,0-3.1,0-4.7,0c-0.4,0-0.6-0.1-0.7-0.6c-0.2-0.9-0.5-1.7-0.8-2.6c-0.3-0.8-0.7-1.1-1.6-1.1c-2.3,0-4.5,0-6.8,0c-1,0-1.1,0.1-1.4,1.1c-0.3,0.9-0.6,1.9-0.9,2.8c0,0.2-0.3,0.4-0.5,0.4c-2.5,0-4.9,0-7.3,0c0,0-0.1,0-0.2-0.1c0.3-1,0.7-1.9,1-2.9c2.7-7.2,5.3-14.3,8-21.5c0.4-1.1,0.7-1.3,1.8-1.3c1.9,0,3.8,0,5.7,0c1.3,0,1.6,0.3,2.1,1.4c2.9,7.8,5.9,15.6,8.8,23.5C140.4,240,140.4,240.3,140.5,240.6z M129.4,230.7c-0.1-0.2-0.1-0.4-0.2-0.6c-0.7-2.6-1.5-5.1-2.3-7.6c0-0.2-0.2-0.4-0.3-0.5c-0.1,0.2-0.3,0.3-0.4,0.5c-0.8,2.5-1.6,5.1-2.4,7.6c-0.1,0.2-0.1,0.4-0.2,0.7C125.6,230.7,127.5,230.7,129.4,230.7z"/><path fill="#e5e5e5" data-title="Layer 8" xs="8" d="M246,240.6c-2.5,0-4.9,0-7.4,0c-0.6,0-0.9-0.4-1.1-0.9c-0.2-0.7-0.5-1.3-0.7-2c-0.3-0.9-1-1.3-1.9-1.3c-2.1,0-4.3,0-6.4,0c-0.7,0-1.2,0.4-1.4,1c-0.3,0.9-0.6,1.8-0.9,2.7c-0.1,0.2-0.3,0.4-0.5,0.4c-2.5,0-4.9,0-7.5,0c0.2-0.6,0.3-1,0.5-1.5c2.8-7.6,5.7-15.3,8.5-22.9c0.4-1,0.7-1.3,1.9-1.3c1.9,0,3.8,0,5.7,0c1.2,0,1.8,0.4,2.2,1.6c0.9,2.3,1.7,4.6,2.6,6.9c2.1,5.6,4.2,11.1,6.3,16.7C245.9,240.2,245.9,240.4,246,240.6z M234.8,230.8c-0.9-3-1.8-5.9-2.6-8.9c-0.1,0-0.2,0-0.3,0c-0.9,2.9-1.8,5.9-2.7,8.9C231,230.8,232.9,230.8,234.8,230.8z"/><path fill="#e5e5e5" data-title="Layer 9" xs="9" d="M12.5,214.9c1.7,0,3.4,0,5,0c3.3,0.1,6.5,0,9.8,0.3c4.4,0.3,7,3.4,6.6,7.8c-0.1,1.9-0.6,3.8-1.9,5.3c-1.5,1.8-3.6,2.5-5.9,2.6c-2,0.1-3.9,0-6,0c0,1.7,0,3.3,0,4.8c0,1.6,0,3.2,0,4.8c-2.6,0-5.2,0-7.7,0C12.5,232,12.5,223.5,12.5,214.9z M20.3,226c1.4-0.1,2.8-0.2,4.2-0.5c1.2-0.2,1.8-1.1,1.9-2.3c0.1-1.2-0.5-2.4-1.6-2.7c-1.4-0.3-2.9-0.4-4.4-0.6C20.3,222,20.3,223.9,20.3,226z"/><path fill="#e5e5e5" data-title="Layer 10" xs="10" d="M106,221.1c0,6.5,0,12.9,0,19.3c-2.6,0-5.2,0-7.8,0c0-6.4,0-12.8,0-19.3c-2.7,0-5.4,0-8,0c0-2.1,0-4.1,0-6.2c7.9,0,15.8,0,23.8,0c0,2,0,4.1,0,6.1C111.3,221.1,108.7,221.1,106,221.1z"/><path fill="#e5e5e5" data-title="Layer 11" xs="11" d="M185.2,240.5c-2.6,0-5.1,0-7.6,0c0-8.5,0-17,0-25.5c2.5,0,5.1,0,7.6,0C185.2,223.5,185.2,232,185.2,240.5z"/></g></g>
</svg>